<?xml version="1.0" standalone="no"?>
<!DOCTYPE svg PUBLIC "-//W3C//DTD SVG 20010904//EN"
 "http://www.w3.org/TR/2001/REC-SVG-20010904/DTD/svg10.dtd">
<svg version="1.0" xmlns="http://www.w3.org/2000/svg"
 width="340.000000pt" height="340.000000pt" viewBox="0 0 340.000000 340.000000"
 preserveAspectRatio="xMidYMid meet">

<g transform="translate(0.000000,340.000000) scale(0.100000,-0.100000)"
fill="#000000" stroke="none">
<path d="M724 3137 c-17 -46 57 -266 126 -370 154 -237 392 -356 780 -391
l125 -11 -80 -44 c-452 -248 -731 -556 -794 -877 l-16 -82 -100 -4 c-294 -15
-508 -230 -522 -523 -9 -171 39 -297 157 -416 111 -112 234 -163 395 -162 155
0 265 45 377 151 182 173 225 422 112 651 -67 136 -224 262 -356 286 -45 8
-45 10 -18 125 67 279 303 546 686 778 55 32 126 73 159 90 l60 30 1 -217 c0
-162 5 -241 18 -316 34 -189 102 -368 190 -499 l44 -65 -56 -32 c-163 -92
-267 -259 -279 -449 -17 -274 170 -518 442 -575 88 -18 132 -18 220 0 441 93
596 642 266 947 -137 127 -339 179 -511 133 l-55 -15 -27 33 c-42 50 -124 213
-157 313 -53 157 -73 302 -74 526 -1 109 2 200 5 203 3 3 50 -14 104 -38 337
-151 647 -169 901 -52 117 54 261 165 333 255 l31 40 -58 26 c-278 125 -509
174 -716 153 -206 -21 -357 -92 -518 -246 l-76 -73 -23 87 c-13 48 -43 127
-68 177 -58 116 -176 238 -295 305 -154 87 -368 141 -614 157 -98 6 -113 5
-119 -9z"/>
</g>
</svg>
