<?xml version="1.0" standalone="no"?>
<!DOCTYPE svg PUBLIC "-//W3C//DTD SVG 20010904//EN"
 "http://www.w3.org/TR/2001/REC-SVG-20010904/DTD/svg10.dtd">
<svg version="1.0" xmlns="http://www.w3.org/2000/svg"
 width="1200.000000pt" height="1015.000000pt" viewBox="0 0 1200.000000 1015.000000"
 preserveAspectRatio="xMidYMid meet">

<g transform="translate(0.000000,1015.000000) scale(0.100000,-0.100000)"
fill="#000000" stroke="none">
<path d="M5730 8840 c-687 -37 -1367 -268 -1929 -658 -252 -175 -558 -454
-749 -686 -447 -540 -730 -1188 -827 -1890 -9 -65 -14 -120 -12 -123 7 -7
1887 -15 1918 -8 23 5 27 14 41 78 9 40 33 118 53 172 231 618 751 1053 1400
1171 142 26 461 26 600 1 293 -55 566 -172 790 -340 112 -84 307 -284 387
-397 122 -171 218 -386 296 -660 l7 -25 935 -2 c514 -1 951 0 971 3 l36 5 -18
137 c-132 1004 -701 1945 -1529 2532 -334 237 -734 432 -1115 543 -406 119
-838 169 -1255 147z"/>
<path d="M5770 6383 c-563 -75 -1009 -503 -1105 -1057 -20 -116 -19 -318 1
-437 87 -509 473 -913 984 -1030 110 -25 328 -35 442 -20 171 23 329 76 473
158 588 338 811 1079 508 1688 -172 344 -498 595 -883 680 -74 16 -347 28
-420 18z"/>
<path d="M3153 4883 c-752 -3 -953 -6 -953 -16 0 -50 25 -257 45 -377 188
-1113 857 -2068 1840 -2625 476 -270 902 -407 1480 -477 132 -15 579 -15 725
1 767 83 1427 358 2020 839 144 117 406 382 523 529 317 398 547 840 682 1310
71 245 107 440 139 756 l6 57 -622 1 c-343 0 -771 0 -953 0 -181 1 -338 0
-347 0 -12 -1 -18 -9 -18 -23 0 -31 -27 -158 -51 -243 -119 -412 -386 -776
-744 -1016 -310 -207 -685 -311 -1070 -296 -353 14 -650 113 -965 322 -131 87
-345 298 -443 435 -83 118 -196 341 -241 480 -33 98 -76 288 -76 331 0 10 -6
18 -12 17 -7 -2 -442 -4 -965 -5z"/>
</g>
</svg>
