<?xml version="1.0" standalone="no"?>
<!DOCTYPE svg PUBLIC "-//W3C//DTD SVG 20010904//EN"
 "http://www.w3.org/TR/2001/REC-SVG-20010904/DTD/svg10.dtd">
<svg version="1.0" xmlns="http://www.w3.org/2000/svg"
 width="600.000000pt" height="600.000000pt" viewBox="0 0 600.000000 600.000000"
 preserveAspectRatio="xMidYMid meet">

<g transform="translate(0.000000,600.000000) scale(0.100000,-0.100000)"
fill="#000000" stroke="none">
<path d="M2671 5312 c-19 -9 -44 -30 -55 -45 -20 -27 -21 -42 -21 -230 l0
-202 405 0 405 0 0 202 c0 188 -1 203 -21 230 -44 60 -59 63 -384 63 -261 0
-299 -2 -329 -18z"/>
<path d="M2637 4723 c-4 -3 -7 -40 -7 -82 l0 -76 -73 -27 c-115 -43 -195 -96
-287 -188 -137 -138 -210 -291 -230 -487 -6 -54 -10 -177 -8 -273 l3 -175 965
0 965 0 3 175 c2 96 -2 219 -8 273 -20 196 -93 349 -230 487 -91 91 -172 144
-287 188 l-72 27 -3 80 -3 80 -361 3 c-198 1 -363 -1 -367 -5z"/>
<path d="M2037 3133 c-4 -3 -7 -336 -7 -740 l0 -733 970 0 970 0 -2 738 -3
737 -961 3 c-528 1 -964 -1 -967 -5z"/>
<path d="M2034 1376 c-3 -8 -4 -122 -2 -253 3 -224 4 -241 26 -288 29 -63 64
-100 127 -133 l50 -27 765 0 765 0 50 27 c63 33 98 70 127 133 22 48 23 60 23
300 l0 250 -963 3 c-829 2 -963 0 -968 -12z"/>
</g>
</svg>
