<?xml version="1.0" standalone="no"?>
<!DOCTYPE svg PUBLIC "-//W3C//DTD SVG 20010904//EN"
 "http://www.w3.org/TR/2001/REC-SVG-20010904/DTD/svg10.dtd">
<svg version="1.0" xmlns="http://www.w3.org/2000/svg"
 width="600.000000pt" height="600.000000pt" viewBox="0 0 600.000000 600.000000"
 preserveAspectRatio="xMidYMid meet">

<g transform="translate(0.000000,600.000000) scale(0.100000,-0.100000)"
fill="#000000" stroke="none">
<path d="M2873 4976 c-165 -40 -303 -160 -371 -322 -22 -53 -44 -162 -33 -168
4 -3 224 19 239 23 1 1 2 8 2 16 0 29 48 110 87 147 58 56 114 78 203 78 89 0
145 -22 203 -78 39 -37 87 -118 87 -147 0 -8 1 -15 3 -16 14 -4 234 -26 238
-23 11 6 -11 115 -33 168 -88 209 -282 338 -506 335 -37 0 -91 -6 -119 -13z"/>
<path d="M2766 4309 c-267 -16 -551 -64 -641 -109 -109 -53 -224 -177 -274
-293 -27 -63 -102 -403 -145 -657 -103 -605 -122 -1184 -55 -1680 13 -99 41
-167 98 -242 81 -107 172 -166 316 -202 331 -83 567 -111 935 -111 368 0 604
28 935 111 144 36 235 95 316 202 57 75 85 143 98 242 81 607 35 1324 -134
2087 -51 226 -66 269 -130 359 -96 134 -205 202 -375 234 -322 60 -623 79
-944 59z m821 -1581 c78 -29 162 -109 198 -189 25 -57 27 -75 46 -382 10 -177
20 -374 22 -437 2 -106 0 -119 -24 -170 -37 -80 -81 -125 -157 -162 l-67 -33
-605 0 -605 0 -55 26 c-73 34 -120 76 -153 136 -48 90 -49 108 -23 552 24 396
25 412 51 469 35 79 114 155 191 187 l59 25 532 0 c521 0 533 0 590 -22z"/>
<path d="M2474 2540 c-38 -15 -82 -77 -88 -122 -3 -24 -12 -173 -21 -333 -8
-159 -18 -321 -20 -360 -7 -84 12 -128 66 -157 31 -17 70 -18 589 -18 520 0
557 1 590 18 19 11 42 34 52 53 18 36 17 81 -21 692 -9 152 -16 170 -81 215
l-33 22 -506 -1 c-278 0 -515 -4 -527 -9z"/>
<path d="M1557 3828 c-491 -659 -737 -1279 -690 -1740 15 -139 43 -252 85
-338 42 -85 156 -199 266 -264 74 -44 259 -122 268 -114 2 2 -3 25 -11 50 -7
26 -22 118 -31 206 l-18 160 -30 18 c-118 69 -155 151 -163 354 -9 225 45 442
186 750 44 94 51 121 70 255 25 169 86 482 129 658 16 64 28 117 26 117 -1 0
-41 -51 -87 -112z"/>
<path d="M4361 3908 c42 -148 147 -679 164 -836 5 -46 22 -95 60 -175 136
-291 191 -513 182 -737 -8 -203 -45 -285 -163 -354 l-30 -18 -18 -160 c-9 -88
-24 -180 -31 -206 -8 -25 -13 -48 -11 -50 9 -8 194 70 268 114 110 65 224 179
266 264 42 86 70 199 85 338 47 461 -199 1081 -690 1740 -46 61 -86 112 -88
112 -2 0 1 -15 6 -32z"/>
</g>
</svg>
