<?xml version="1.0" standalone="no"?>
<!DOCTYPE svg PUBLIC "-//W3C//DTD SVG 20010904//EN"
 "http://www.w3.org/TR/2001/REC-SVG-20010904/DTD/svg10.dtd">
<svg version="1.0" xmlns="http://www.w3.org/2000/svg"
 width="600.000000pt" height="600.000000pt" viewBox="0 0 600.000000 600.000000"
 preserveAspectRatio="xMidYMid meet">

<g transform="translate(0.000000,600.000000) scale(0.100000,-0.100000)"
fill="#000000" stroke="none">
<path d="M2851 4935 c-220 -48 -412 -219 -487 -434 -132 -380 83 -782 472
-881 335 -86 686 102 800 429 52 149 52 303 0 452 -111 319 -450 506 -785 434z"/>
<path d="M2189 3410 c-78 -12 -206 -61 -274 -105 -123 -78 -234 -209 -288
-340 -52 -127 -52 -124 -52 -802 l0 -633 33 -32 32 -33 177 -3 c189 -4 219 2
253 46 19 24 20 43 20 543 l0 519 70 0 70 0 0 -744 c0 -664 2 -746 16 -760 14
-14 96 -16 754 -16 658 0 740 2 754 16 14 14 16 96 16 760 l0 744 70 0 70 0 0
-519 c0 -500 1 -519 20 -543 34 -44 64 -50 253 -46 l177 3 32 33 33 32 0 633
c0 677 0 675 -52 801 -39 93 -98 179 -172 248 -87 83 -164 129 -282 170 l-94
33 -790 2 c-434 0 -815 -3 -846 -7z"/>
</g>
</svg>
