<?xml version="1.0" standalone="no"?>
<!DOCTYPE svg PUBLIC "-//W3C//DTD SVG 20010904//EN"
 "http://www.w3.org/TR/2001/REC-SVG-20010904/DTD/svg10.dtd">
<svg version="1.0" xmlns="http://www.w3.org/2000/svg"
 width="920.000000pt" height="776.000000pt" viewBox="0 0 920.000000 776.000000"
 preserveAspectRatio="xMidYMid meet">

<g transform="translate(0.000000,776.000000) scale(0.100000,-0.100000)"
fill="#000000" stroke="none">
<path d="M6660 7504 c-111 -30 -283 -128 -519 -297 -182 -131 -476 -408 -665
-627 -97 -113 -307 -418 -440 -639 -37 -61 -69 -111 -71 -111 -2 0 -58 15
-124 34 -268 77 -468 91 -821 61 -205 -18 -259 -32 -479 -119 l-164 -65 -202
63 c-220 70 -480 138 -705 186 -460 98 -1202 106 -1308 15 l-26 -23 19 -42
c59 -131 508 -398 800 -475 55 -15 127 -35 160 -45 168 -53 492 -109 673 -117
78 -3 141 -9 140 -12 -2 -3 -19 -37 -39 -76 -60 -114 -122 -321 -149 -489 -6
-37 -21 -89 -34 -115 -51 -100 -96 -232 -107 -306 -11 -85 -1 -205 27 -302 29
-104 178 -274 420 -481 34 -28 69 -67 78 -86 14 -30 14 -39 1 -88 -18 -69 -81
-466 -91 -568 -4 -41 -19 -118 -35 -170 -119 -403 -159 -865 -97 -1120 19 -80
96 -217 185 -331 23 -30 43 -61 43 -67 0 -6 -38 -52 -85 -101 -81 -86 -168
-207 -215 -300 -17 -34 -20 -53 -15 -86 6 -40 9 -44 58 -65 42 -18 64 -22 122
-18 129 9 440 130 582 226 33 23 114 83 179 135 l119 94 125 24 c227 42 539
29 896 -36 250 -47 221 -32 299 -143 106 -149 210 -278 318 -389 69 -73 177
-133 238 -133 69 0 85 12 110 87 45 128 31 282 -52 581 l-40 143 49 62 c131
165 183 278 222 487 l10 55 453 302 c248 166 533 348 632 404 99 56 199 112
223 126 23 13 42 30 42 37 0 29 -239 180 -524 331 l-109 58 144 94 c79 51 227
140 329 197 211 118 423 252 418 266 -2 6 -39 37 -83 70 -91 69 -408 230 -660
335 -88 37 -163 70 -167 74 -7 6 144 147 289 268 93 77 530 405 696 522 64 46
117 87 117 91 0 9 -304 255 -405 327 -38 28 -144 97 -235 153 -91 56 -286 181
-433 278 l-269 175 -63 -64 c-83 -85 -816 -842 -825 -852 -4 -5 -15 24 -25 65
-21 89 -76 239 -120 330 l-33 68 200 227 c510 580 671 791 818 1075 138 268
202 447 240 674 12 71 24 139 27 152 6 25 6 25 -67 6z m-885 -3863 c246 -78
289 -93 412 -143 l102 -42 -56 -65 c-91 -105 -223 -250 -289 -317 -60 -60
-102 -138 -91 -166 7 -20 199 -113 337 -164 123 -45 323 -142 318 -155 -2 -4
-109 -108 -238 -233 -147 -141 -237 -221 -241 -213 -3 7 -12 41 -18 77 -48
255 -216 772 -334 1027 -66 141 -70 155 -97 303 -11 63 -23 125 -26 138 -4 19
-1 23 13 18 10 -3 104 -32 208 -65z"/>
</g>
</svg>
